<svg xmlns="http://www.w3.org/2000/svg" version="1.1" xmlns:xlink="http://www.w3.org/1999/xlink" xmlns:svgjs="http://svgjs.com/svgjs" width="1530" height="700" preserveAspectRatio="none" viewBox="0 0 1530 700"><g mask="url(&quot;#SvgjsMask1257&quot;)" fill="none"><rect width="1530" height="700" x="0" y="0" fill="url(#SvgjsLinearGradient1258)"></rect><path d="M11 700L711 0L1345.5 0L645.5 700z" fill="url(#SvgjsLinearGradient1259)"></path><path d="M569.9000000000001 700L1269.9 0L1928.4 0L1228.4 700z" fill="url(#SvgjsLinearGradient1259)"></path><path d="M1520 700L820 0L251.5 0L951.5 700z" fill="url(#SvgjsLinearGradient1260)"></path><path d="M1014.0999999999999 700L314.0999999999999 0L-126.90000000000009 0L573.0999999999999 700z" fill="url(#SvgjsLinearGradient1260)"></path><path d="M868.6680061295882 700L1530 38.66800612958821L1530 700z" fill="url(#SvgjsLinearGradient1259)"></path><path d="M0 700L661.3319938704118 700L 0 38.66800612958821z" fill="url(#SvgjsLinearGradient1260)"></path></g><defs><mask id="SvgjsMask1257"><rect width="1530" height="700" fill="#ffffff"></rect></mask><linearGradient x1="50%" y1="100%" x2="50%" y2="0%" gradientUnits="userSpaceOnUse" id="SvgjsLinearGradient1258"><stop stop-color="rgba(9, 34, 66, 1)" offset="0.06"></stop><stop stop-color="rgba(9, 34, 66, 1)" offset="0.25"></stop><stop stop-color="rgba(9, 34, 66, 1)" offset="0.46"></stop><stop stop-color="rgba(9, 34, 66, 1)" offset="0.8"></stop><stop stop-color="rgba(9, 34, 66, 1)" offset="1"></stop></linearGradient><linearGradient x1="0%" y1="100%" x2="100%" y2="0%" id="SvgjsLinearGradient1259"><stop stop-color="rgba(15, 70, 185, 0.2)" offset="0"></stop><stop stop-opacity="0" stop-color="rgba(15, 70, 185, 0.2)" offset="0.66"></stop></linearGradient><linearGradient x1="100%" y1="100%" x2="0%" y2="0%" id="SvgjsLinearGradient1260"><stop stop-color="rgba(15, 70, 185, 0.2)" offset="0"></stop><stop stop-opacity="0" stop-color="rgba(15, 70, 185, 0.2)" offset="0.66"></stop></linearGradient></defs></svg>